solid COMSOL rendering object uni1
facet normal -1 -0 -0
outer loop
vertex 0.000119999996968545 -2.49999993684469e-06 -2.99999992421363e-05
vertex 0.000119999996968545 7.999999797903e-05 -4.99999987368938e-05
vertex 0.000119999996968545 -2.49999993684469e-05 -4.99999987368938e-05
endloop
endfacet
facet normal -1 -0 -0
outer loop
vertex 0.000119999996968545 -2.49999993684469e-05 4.99999987368938e-05
vertex 0.000119999996968545 -2.49999993684469e-06 2.99999992421363e-05
vertex 0.000119999996968545 -2.49999993684469e-05 -4.99999987368938e-05
endloop
endfacet
facet normal -1 -0 -0
outer loop
vertex 0.000119999996968545 -2.49999993684469e-05 -4.99999987368938e-05
vertex 0.000119999996968545 -2.49999993684469e-06 2.99999992421363e-05
vertex 0.000119999996968545 -2.49999993684469e-06 -2.99999992421363e-05
endloop
endfacet
facet normal -1 -0 -0
outer loop
vertex 0.000119999996968545 -2.49999993684469e-06 -2.99999992421363e-05
vertex 0.000119999996968545 7.999999797903e-05 -2.99999992421363e-05
vertex 0.000119999996968545 7.999999797903e-05 -4.99999987368938e-05
endloop
endfacet
facet normal -1 -0 -0
outer loop
vertex 0.000119999996968545 -2.49999993684469e-05 4.99999987368938e-05
vertex 0.000119999996968545 7.999999797903e-05 4.99999987368938e-05
vertex 0.000119999996968545 -2.49999993684469e-06 2.99999992421363e-05
endloop
endfacet
facet normal -1 -0 -0
outer loop
vertex 0.000119999996968545 -2.49999993684469e-06 2.99999992421363e-05
vertex 0.000119999996968545 7.999999797903e-05 4.99999987368938e-05
vertex 0.000119999996968545 7.999999797903e-05 2.99999992421363e-05
endloop
endfacet
facet normal -0 -1 -0
outer loop
vertex 0.000119999996968545 -2.49999993684469e-05 -4.99999987368938e-05
vertex 0.000169999999343418 -2.49999993684469e-05 4.99999987368938e-05
vertex 0.000119999996968545 -2.49999993684469e-05 4.99999987368938e-05
endloop
endfacet
facet normal -0 -1 -0
outer loop
vertex 0.000169999999343418 -2.49999993684469e-05 -4.99999987368938e-05
vertex 0.000169999999343418 -2.49999993684469e-05 4.99999987368938e-05
vertex 0.000119999996968545 -2.49999993684469e-05 -4.99999987368938e-05
endloop
endfacet
facet normal -0 -0 -1
outer loop
vertex 0.000119999996968545 7.999999797903e-05 -4.99999987368938e-05
vertex 0.000169999999343418 7.999999797903e-05 -4.99999987368938e-05
vertex 0.000119999996968545 -2.49999993684469e-05 -4.99999987368938e-05
endloop
endfacet
facet normal -0 -0 -1
outer loop
vertex 0.000119999996968545 -2.49999993684469e-05 -4.99999987368938e-05
vertex 0.000169999999343418 7.999999797903e-05 -4.99999987368938e-05
vertex 0.000169999999343418 -2.49999993684469e-05 -4.99999987368938e-05
endloop
endfacet
facet normal 0 0 1
outer loop
vertex 0.000119999996968545 7.999999797903e-05 4.99999987368938e-05
vertex 0.000119999996968545 -2.49999993684469e-05 4.99999987368938e-05
vertex 0.000169999999343418 7.999999797903e-05 4.99999987368938e-05
endloop
endfacet
facet normal 0 0 1
outer loop
vertex 0.000119999996968545 -2.49999993684469e-05 4.99999987368938e-05
vertex 0.000169999999343418 -2.49999993684469e-05 4.99999987368938e-05
vertex 0.000169999999343418 7.999999797903e-05 4.99999987368938e-05
endloop
endfacet
facet normal 0 1 0
outer loop
vertex 0.000119999996968545 -2.49999993684469e-06 -2.99999992421363e-05
vertex 0.000119999996968545 -2.49999993684469e-06 2.99999992421363e-05
vertex 0.000169999999343418 -2.49999993684469e-06 2.99999992421363e-05
endloop
endfacet
facet normal 0 1 0
outer loop
vertex 0.000169999999343418 -2.49999993684469e-06 -2.99999992421363e-05
vertex 0.000119999996968545 -2.49999993684469e-06 -2.99999992421363e-05
vertex 0.000169999999343418 -2.49999993684469e-06 2.99999992421363e-05
endloop
endfacet
facet normal 0 0 1
outer loop
vertex 0.000119999996968545 7.999999797903e-05 -2.99999992421363e-05
vertex 0.000119999996968545 -2.49999993684469e-06 -2.99999992421363e-05
vertex 0.000169999999343418 7.999999797903e-05 -2.99999992421363e-05
endloop
endfacet
facet normal 0 0 1
outer loop
vertex 0.000119999996968545 -2.49999993684469e-06 -2.99999992421363e-05
vertex 0.000169999999343418 -2.49999993684469e-06 -2.99999992421363e-05
vertex 0.000169999999343418 7.999999797903e-05 -2.99999992421363e-05
endloop
endfacet
facet normal -0 -0 -1
outer loop
vertex 0.000119999996968545 7.999999797903e-05 2.99999992421363e-05
vertex 0.000169999999343418 7.999999797903e-05 2.99999992421363e-05
vertex 0.000119999996968545 -2.49999993684469e-06 2.99999992421363e-05
endloop
endfacet
facet normal -0 -0 -1
outer loop
vertex 0.000119999996968545 -2.49999993684469e-06 2.99999992421363e-05
vertex 0.000169999999343418 7.999999797903e-05 2.99999992421363e-05
vertex 0.000169999999343418 -2.49999993684469e-06 2.99999992421363e-05
endloop
endfacet
facet normal -1 -0 -0
outer loop
vertex 0.000119999996968545 7.999999797903e-05 -2.99999992421363e-05
vertex 0.000119999996968545 0.000130000000353903 -2.99999992421363e-05
vertex 0.000119999996968545 7.999999797903e-05 -4.99999987368938e-05
endloop
endfacet
facet normal -1 -0 -0
outer loop
vertex 0.000119999996968545 7.999999797903e-05 -4.99999987368938e-05
vertex 0.000119999996968545 0.000130000000353903 -2.99999992421363e-05
vertex 0.000119999996968545 0.000130000000353903 -4.99999987368938e-05
endloop
endfacet
facet normal -0 -0 -1
outer loop
vertex 0.000119999996968545 0.000130000000353903 -4.99999987368938e-05
vertex 0.000169999999343418 0.000130000000353903 -4.99999987368938e-05
vertex 0.000119999996968545 7.999999797903e-05 -4.99999987368938e-05
endloop
endfacet
facet normal -0 -0 -1
outer loop
vertex 0.000119999996968545 7.999999797903e-05 -4.99999987368938e-05
vertex 0.000169999999343418 0.000130000000353903 -4.99999987368938e-05
vertex 0.000169999999343418 7.999999797903e-05 -4.99999987368938e-05
endloop
endfacet
facet normal -1 -0 -0
outer loop
vertex 0.000119999996968545 7.999999797903e-05 2.99999992421363e-05
vertex 0.000119999996968545 0.000130000000353903 2.99999992421363e-05
vertex 0.000119999996968545 7.999999797903e-05 -2.99999992421363e-05
endloop
endfacet
facet normal -1 -0 -0
outer loop
vertex 0.000119999996968545 7.999999797903e-05 -2.99999992421363e-05
vertex 0.000119999996968545 0.000130000000353903 2.99999992421363e-05
vertex 0.000119999996968545 0.000130000000353903 -2.99999992421363e-05
endloop
endfacet
facet normal -0 -1 -0
outer loop
vertex 0.000119999996968545 7.999999797903e-05 -2.99999992421363e-05
vertex 0.000169999999343418 7.999999797903e-05 2.99999992421363e-05
vertex 0.000119999996968545 7.999999797903e-05 2.99999992421363e-05
endloop
endfacet
facet normal -0 -1 -0
outer loop
vertex 0.000169999999343418 7.999999797903e-05 -2.99999992421363e-05
vertex 0.000169999999343418 7.999999797903e-05 2.99999992421363e-05
vertex 0.000119999996968545 7.999999797903e-05 -2.99999992421363e-05
endloop
endfacet
facet normal -1 -0 -0
outer loop
vertex 0.000119999996968545 7.999999797903e-05 4.99999987368938e-05
vertex 0.000119999996968545 0.000130000000353903 4.99999987368938e-05
vertex 0.000119999996968545 7.999999797903e-05 2.99999992421363e-05
endloop
endfacet
facet normal -1 -0 -0
outer loop
vertex 0.000119999996968545 7.999999797903e-05 2.99999992421363e-05
vertex 0.000119999996968545 0.000130000000353903 4.99999987368938e-05
vertex 0.000119999996968545 0.000130000000353903 2.99999992421363e-05
endloop
endfacet
facet normal 0 0 1
outer loop
vertex 0.000119999996968545 0.000130000000353903 4.99999987368938e-05
vertex 0.000119999996968545 7.999999797903e-05 4.99999987368938e-05
vertex 0.000169999999343418 0.000130000000353903 4.99999987368938e-05
endloop
endfacet
facet normal 0 0 1
outer loop
vertex 0.000119999996968545 7.999999797903e-05 4.99999987368938e-05
vertex 0.000169999999343418 7.999999797903e-05 4.99999987368938e-05
vertex 0.000169999999343418 0.000130000000353903 4.99999987368938e-05
endloop
endfacet
facet normal -1 -0 -0
outer loop
vertex 0.000119999996968545 0.000130000000353903 4.99999987368938e-05
vertex 0.000119999996968545 0.000274999998509884 4.99999987368938e-05
vertex 0.000119999996968545 0.000252500001806766 2.99999992421363e-05
endloop
endfacet
facet normal -1 -0 -0
outer loop
vertex 0.000119999996968545 0.000252500001806766 -2.99999992421363e-05
vertex 0.000119999996968545 0.000274999998509884 4.99999987368938e-05
vertex 0.000119999996968545 0.000274999998509884 -4.99999987368938e-05
endloop
endfacet
facet normal -1 -0 -0
outer loop
vertex 0.000119999996968545 0.000130000000353903 4.99999987368938e-05
vertex 0.000119999996968545 0.000252500001806766 2.99999992421363e-05
vertex 0.000119999996968545 0.000130000000353903 2.99999992421363e-05
endloop
endfacet
facet normal -1 -0 -0
outer loop
vertex 0.000119999996968545 0.000252500001806766 2.99999992421363e-05
vertex 0.000119999996968545 0.000274999998509884 4.99999987368938e-05
vertex 0.000119999996968545 0.000252500001806766 -2.99999992421363e-05
endloop
endfacet
facet normal -1 -0 -0
outer loop
vertex 0.000119999996968545 0.000252500001806766 -2.99999992421363e-05
vertex 0.000119999996968545 0.000274999998509884 -4.99999987368938e-05
vertex 0.000119999996968545 0.000130000000353903 -4.99999987368938e-05
endloop
endfacet
facet normal -1 -0 -0
outer loop
vertex 0.000119999996968545 0.000130000000353903 -2.99999992421363e-05
vertex 0.000119999996968545 0.000252500001806766 -2.99999992421363e-05
vertex 0.000119999996968545 0.000130000000353903 -4.99999987368938e-05
endloop
endfacet
facet normal -0 -0 -1
outer loop
vertex 0.000119999996968545 0.000274999998509884 -4.99999987368938e-05
vertex 0.000169999999343418 0.000274999998509884 -4.99999987368938e-05
vertex 0.000119999996968545 0.000130000000353903 -4.99999987368938e-05
endloop
endfacet
facet normal -0 -0 -1
outer loop
vertex 0.000119999996968545 0.000130000000353903 -4.99999987368938e-05
vertex 0.000169999999343418 0.000274999998509884 -4.99999987368938e-05
vertex 0.000169999999343418 0.000130000000353903 -4.99999987368938e-05
endloop
endfacet
facet normal 0 1 0
outer loop
vertex 0.000119999996968545 0.000130000000353903 -2.99999992421363e-05
vertex 0.000119999996968545 0.000130000000353903 2.99999992421363e-05
vertex 0.000169999999343418 0.000130000000353903 2.99999992421363e-05
endloop
endfacet
facet normal 0 1 0
outer loop
vertex 0.000169999999343418 0.000130000000353903 -2.99999992421363e-05
vertex 0.000119999996968545 0.000130000000353903 -2.99999992421363e-05
vertex 0.000169999999343418 0.000130000000353903 2.99999992421363e-05
endloop
endfacet
facet normal 0 0 1
outer loop
vertex 0.000119999996968545 0.000252500001806766 -2.99999992421363e-05
vertex 0.000119999996968545 0.000130000000353903 -2.99999992421363e-05
vertex 0.000169999999343418 0.000252500001806766 -2.99999992421363e-05
endloop
endfacet
facet normal 0 0 1
outer loop
vertex 0.000119999996968545 0.000130000000353903 -2.99999992421363e-05
vertex 0.000169999999343418 0.000130000000353903 -2.99999992421363e-05
vertex 0.000169999999343418 0.000252500001806766 -2.99999992421363e-05
endloop
endfacet
facet normal -0 -0 -1
outer loop
vertex 0.000119999996968545 0.000252500001806766 2.99999992421363e-05
vertex 0.000169999999343418 0.000252500001806766 2.99999992421363e-05
vertex 0.000119999996968545 0.000130000000353903 2.99999992421363e-05
endloop
endfacet
facet normal -0 -0 -1
outer loop
vertex 0.000119999996968545 0.000130000000353903 2.99999992421363e-05
vertex 0.000169999999343418 0.000252500001806766 2.99999992421363e-05
vertex 0.000169999999343418 0.000130000000353903 2.99999992421363e-05
endloop
endfacet
facet normal 0 0 1
outer loop
vertex 0.000119999996968545 0.000274999998509884 4.99999987368938e-05
vertex 0.000119999996968545 0.000130000000353903 4.99999987368938e-05
vertex 0.000169999999343418 0.000274999998509884 4.99999987368938e-05
endloop
endfacet
facet normal 0 0 1
outer loop
vertex 0.000119999996968545 0.000130000000353903 4.99999987368938e-05
vertex 0.000169999999343418 0.000130000000353903 4.99999987368938e-05
vertex 0.000169999999343418 0.000274999998509884 4.99999987368938e-05
endloop
endfacet
facet normal -0 -1 -0
outer loop
vertex 0.000119999996968545 0.000252500001806766 -2.99999992421363e-05
vertex 0.000169999999343418 0.000252500001806766 2.99999992421363e-05
vertex 0.000119999996968545 0.000252500001806766 2.99999992421363e-05
endloop
endfacet
facet normal -0 -1 -0
outer loop
vertex 0.000169999999343418 0.000252500001806766 -2.99999992421363e-05
vertex 0.000169999999343418 0.000252500001806766 2.99999992421363e-05
vertex 0.000119999996968545 0.000252500001806766 -2.99999992421363e-05
endloop
endfacet
facet normal 0 1 0
outer loop
vertex 0.000119999996968545 0.000274999998509884 -4.99999987368938e-05
vertex 0.000119999996968545 0.000274999998509884 4.99999987368938e-05
vertex 0.000169999999343418 0.000274999998509884 4.99999987368938e-05
endloop
endfacet
facet normal 0 1 0
outer loop
vertex 0.000169999999343418 0.000274999998509884 -4.99999987368938e-05
vertex 0.000119999996968545 0.000274999998509884 -4.99999987368938e-05
vertex 0.000169999999343418 0.000274999998509884 4.99999987368938e-05
endloop
endfacet
facet normal 1 0 0
outer loop
vertex 0.000169999999343418 -2.49999993684469e-06 -2.99999992421363e-05
vertex 0.000169999999343418 -2.49999993684469e-05 -4.99999987368938e-05
vertex 0.000169999999343418 7.999999797903e-05 -4.99999987368938e-05
endloop
endfacet
facet normal 1 0 0
outer loop
vertex 0.000169999999343418 -2.49999993684469e-05 4.99999987368938e-05
vertex 0.000169999999343418 -2.49999993684469e-05 -4.99999987368938e-05
vertex 0.000169999999343418 -2.49999993684469e-06 2.99999992421363e-05
endloop
endfacet
facet normal 1 0 0
outer loop
vertex 0.000169999999343418 -2.49999993684469e-05 -4.99999987368938e-05
vertex 0.000169999999343418 -2.49999993684469e-06 -2.99999992421363e-05
vertex 0.000169999999343418 -2.49999993684469e-06 2.99999992421363e-05
endloop
endfacet
facet normal 1 0 0
outer loop
vertex 0.000169999999343418 -2.49999993684469e-06 -2.99999992421363e-05
vertex 0.000169999999343418 7.999999797903e-05 -4.99999987368938e-05
vertex 0.000169999999343418 7.999999797903e-05 -2.99999992421363e-05
endloop
endfacet
facet normal 1 0 0
outer loop
vertex 0.000169999999343418 -2.49999993684469e-05 4.99999987368938e-05
vertex 0.000169999999343418 -2.49999993684469e-06 2.99999992421363e-05
vertex 0.000169999999343418 7.999999797903e-05 4.99999987368938e-05
endloop
endfacet
facet normal 1 0 0
outer loop
vertex 0.000169999999343418 -2.49999993684469e-06 2.99999992421363e-05
vertex 0.000169999999343418 7.999999797903e-05 2.99999992421363e-05
vertex 0.000169999999343418 7.999999797903e-05 4.99999987368938e-05
endloop
endfacet
facet normal 1 0 0
outer loop
vertex 0.000169999999343418 7.999999797903e-05 -2.99999992421363e-05
vertex 0.000169999999343418 7.999999797903e-05 -4.99999987368938e-05
vertex 0.000169999999343418 0.000130000000353903 -2.99999992421363e-05
endloop
endfacet
facet normal 1 0 0
outer loop
vertex 0.000169999999343418 7.999999797903e-05 -4.99999987368938e-05
vertex 0.000169999999343418 0.000130000000353903 -4.99999987368938e-05
vertex 0.000169999999343418 0.000130000000353903 -2.99999992421363e-05
endloop
endfacet
facet normal 1 0 0
outer loop
vertex 0.000169999999343418 7.999999797903e-05 2.99999992421363e-05
vertex 0.000169999999343418 7.999999797903e-05 -2.99999992421363e-05
vertex 0.000169999999343418 0.000130000000353903 2.99999992421363e-05
endloop
endfacet
facet normal 1 0 0
outer loop
vertex 0.000169999999343418 7.999999797903e-05 -2.99999992421363e-05
vertex 0.000169999999343418 0.000130000000353903 -2.99999992421363e-05
vertex 0.000169999999343418 0.000130000000353903 2.99999992421363e-05
endloop
endfacet
facet normal 1 0 0
outer loop
vertex 0.000169999999343418 7.999999797903e-05 4.99999987368938e-05
vertex 0.000169999999343418 7.999999797903e-05 2.99999992421363e-05
vertex 0.000169999999343418 0.000130000000353903 4.99999987368938e-05
endloop
endfacet
facet normal 1 0 0
outer loop
vertex 0.000169999999343418 7.999999797903e-05 2.99999992421363e-05
vertex 0.000169999999343418 0.000130000000353903 2.99999992421363e-05
vertex 0.000169999999343418 0.000130000000353903 4.99999987368938e-05
endloop
endfacet
facet normal 1 0 0
outer loop
vertex 0.000169999999343418 0.000130000000353903 4.99999987368938e-05
vertex 0.000169999999343418 0.000252500001806766 2.99999992421363e-05
vertex 0.000169999999343418 0.000274999998509884 4.99999987368938e-05
endloop
endfacet
facet normal 1 0 0
outer loop
vertex 0.000169999999343418 0.000252500001806766 -2.99999992421363e-05
vertex 0.000169999999343418 0.000274999998509884 -4.99999987368938e-05
vertex 0.000169999999343418 0.000274999998509884 4.99999987368938e-05
endloop
endfacet
facet normal 1 0 0
outer loop
vertex 0.000169999999343418 0.000130000000353903 4.99999987368938e-05
vertex 0.000169999999343418 0.000130000000353903 2.99999992421363e-05
vertex 0.000169999999343418 0.000252500001806766 2.99999992421363e-05
endloop
endfacet
facet normal 1 0 0
outer loop
vertex 0.000169999999343418 0.000252500001806766 2.99999992421363e-05
vertex 0.000169999999343418 0.000252500001806766 -2.99999992421363e-05
vertex 0.000169999999343418 0.000274999998509884 4.99999987368938e-05
endloop
endfacet
facet normal 1 0 0
outer loop
vertex 0.000169999999343418 0.000252500001806766 -2.99999992421363e-05
vertex 0.000169999999343418 0.000130000000353903 -4.99999987368938e-05
vertex 0.000169999999343418 0.000274999998509884 -4.99999987368938e-05
endloop
endfacet
facet normal 1 0 0
outer loop
vertex 0.000169999999343418 0.000130000000353903 -2.99999992421363e-05
vertex 0.000169999999343418 0.000130000000353903 -4.99999987368938e-05
vertex 0.000169999999343418 0.000252500001806766 -2.99999992421363e-05
endloop
endfacet
endsolid COMSOL rendering object uni1
